<svg width="1600" height="900" viewBox="0 0 1600 900" fill="none" xmlns="http://www.w3.org/2000/svg">
  <defs>
    <linearGradient id="bg" x1="0" y1="0" x2="1600" y2="900" gradientUnits="userSpaceOnUse">
      <stop stop-color="#09051A" />
      <stop offset="0.52" stop-color="#120A2A" />
      <stop offset="1" stop-color="#080414" />
    </linearGradient>
    <radialGradient id="violetGlow" cx="0" cy="0" r="1" gradientUnits="userSpaceOnUse" gradientTransform="translate(1080 210) rotate(144) scale(680 340)">
      <stop stop-color="#A78BFA" stop-opacity="0.68" />
      <stop offset="1" stop-color="#A78BFA" stop-opacity="0" />
    </radialGradient>
    <radialGradient id="pinkGlow" cx="0" cy="0" r="1" gradientUnits="userSpaceOnUse" gradientTransform="translate(520 660) rotate(-18) scale(720 330)">
      <stop stop-color="#F472B6" stop-opacity="0.44" />
      <stop offset="1" stop-color="#F472B6" stop-opacity="0" />
    </radialGradient>
    <linearGradient id="waveA" x1="160" y1="548" x2="1428" y2="372" gradientUnits="userSpaceOnUse">
      <stop stop-color="#A78BFA" stop-opacity="0" />
      <stop offset="0.3" stop-color="#A78BFA" stop-opacity="0.86" />
      <stop offset="0.64" stop-color="#F9A8D4" stop-opacity="0.9" />
      <stop offset="1" stop-color="#60A5FA" stop-opacity="0.2" />
    </linearGradient>
    <linearGradient id="waveB" x1="190" y1="332" x2="1410" y2="608" gradientUnits="userSpaceOnUse">
      <stop stop-color="#60A5FA" stop-opacity="0.14" />
      <stop offset="0.4" stop-color="#C4B5FD" stop-opacity="0.86" />
      <stop offset="0.78" stop-color="#F472B6" stop-opacity="0.78" />
      <stop offset="1" stop-color="#F472B6" stop-opacity="0" />
    </linearGradient>
    <filter id="softBlur" x="-120" y="-120" width="1840" height="1140" filterUnits="userSpaceOnUse" color-interpolation-filters="sRGB">
      <feGaussianBlur stdDeviation="18" />
    </filter>
  </defs>

  <rect width="1600" height="900" fill="url(#bg)" />
  <rect width="1600" height="900" fill="url(#violetGlow)" />
  <rect width="1600" height="900" fill="url(#pinkGlow)" />

  <g opacity="0.22">
    <path d="M102 718C262 588 458 584 618 654C778 724 916 756 1078 658C1224 568 1364 562 1496 612" stroke="#9EC7FF" stroke-opacity="0.42" stroke-width="1.6" />
    <path d="M110 672C270 542 466 538 626 608C786 678 924 710 1086 612C1232 522 1372 516 1504 566" stroke="#F9A8D4" stroke-opacity="0.46" stroke-width="1.2" />
    <path d="M94 762C254 632 450 628 610 698C770 768 908 800 1070 702C1216 612 1356 606 1488 656" stroke="#A78BFA" stroke-opacity="0.34" stroke-width="1.3" />
  </g>

  <g filter="url(#softBlur)">
    <path d="M130 574C290 466 436 442 612 486C820 538 938 598 1146 538C1266 504 1378 442 1490 354" stroke="url(#waveA)" stroke-width="90" stroke-linecap="round" />
    <path d="M142 326C330 430 526 486 704 456C876 426 1002 332 1168 308C1306 288 1406 338 1492 424" stroke="url(#waveB)" stroke-width="72" stroke-linecap="round" />
  </g>

  <path d="M138 562C300 454 444 430 618 474C822 526 940 586 1148 526C1268 492 1382 430 1492 344" stroke="url(#waveA)" stroke-width="32" stroke-linecap="round" />
  <path d="M148 334C332 434 526 488 702 458C876 430 1002 338 1168 314C1304 294 1404 342 1488 422" stroke="url(#waveB)" stroke-width="24" stroke-linecap="round" />
</svg>
